<?xml version="1.0" encoding="UTF-8"?>
<svg version="1.1" xmlns="http://www.w3.org/2000/svg" width="512" height="512">
<path d="M0 0 C6.50937684 -0.28061948 13.01717909 -0.47221904 19.53125 -0.60424805 C21.74310572 -0.65931834 23.95456548 -0.73420427 26.16503906 -0.82983398 C45.51772347 -1.64564823 45.51772347 -1.64564823 50.52612305 2.23388672 C53.07857049 5.01928899 55.0405997 7.77714493 57 11 C58.09524119 12.36062892 59.20867944 13.70701583 60.34765625 15.03125 C61.25692965 16.18410154 62.16207677 17.34022295 63.0625 18.5 C63.76922852 19.38945312 63.76922852 19.38945312 64.49023438 20.296875 C66.49017656 22.85219682 67.96568197 24.89704592 69 28 C69.66 28 70.32 28 71 28 C72.72335769 30.02730085 74.33807275 32.06536419 75.9375 34.1875 C79.72731892 39.11803557 83.58308309 43.96107068 87.625 48.6875 C92.4967535 54.39455856 97.26493352 60.17875339 102 66 C103.49943092 67.83379879 104.99943458 69.66712943 106.5 71.5 C109.5 75.16666667 112.5 78.83333333 115.5 82.5 C116.24507813 83.41007812 116.99015625 84.32015625 117.7578125 85.2578125 C119.2340486 87.06324411 120.70806736 88.87049141 122.1796875 90.6796875 C125.74156145 95.05280676 129.32846999 99.3989186 132.98974609 103.68896484 C138.67019859 110.34652725 144.13476874 117.14933848 149.49813843 124.06443787 C151.22002043 126.2835569 152.94436791 128.50074854 154.66894531 130.71777344 C155.29424133 131.5216449 155.91953735 132.32551636 156.56378174 133.15374756 C157.03773376 133.76301086 157.51168579 134.37227417 158 135 C158.07032543 120.99545117 158.12290282 106.99093004 158.15543652 92.98624039 C158.1710554 86.4824636 158.19222465 79.97880592 158.22631836 73.47509766 C158.25904648 67.19217517 158.2768814 60.90936685 158.28463173 54.62636566 C158.29015112 52.23593093 158.30092886 49.84550206 158.31719017 47.45511627 C158.33914307 44.09266423 158.34195946 40.73067686 158.34057617 37.36816406 C158.351362 36.39207687 158.36214783 35.41598969 158.3732605 34.4103241 C158.33744278 26.30148151 157.6190635 17.539275 152.6875 10.875 C147.77195447 7.44554963 142.87590507 6.70510861 137 6 C137 4.02 137 2.04 137 0 C155.15 0 173.3 0 192 0 C192 1.98 192 3.96 192 6 C191.02417969 6.20496094 190.04835937 6.40992188 189.04296875 6.62109375 C187.77066406 6.89050781 186.49835938 7.15992188 185.1875 7.4375 C183.92292969 7.70433594 182.65835938 7.97117188 181.35546875 8.24609375 C178.02954587 8.93427886 178.02954587 8.93427886 175 10 C168.66429064 20.06259722 169.84287326 33.25420999 169.79467773 44.62939453 C169.78507898 46.0791297 169.7750678 47.52886219 169.76467896 48.97859192 C169.73783989 52.88488266 169.71671781 56.79118523 169.69667697 60.69751596 C169.67468656 64.79078689 169.64736225 68.88402226 169.62062073 72.9772644 C169.5708692 80.7153007 169.52586591 88.45335691 169.48259836 96.19143188 C169.43307529 105.00651351 169.37821345 113.82155943 169.32291877 122.63660645 C169.20936828 140.75770442 169.10247146 158.87883616 169 177 C162.23065186 177.15029907 162.23065186 177.15029907 160.15478516 175.79760742 C159.70409668 175.23920166 159.2534082 174.6807959 158.7890625 174.10546875 C158.27134277 173.48526855 157.75362305 172.86506836 157.22021484 172.22607422 C156.4305835 171.21697998 156.4305835 171.21697998 155.625 170.1875 C155.06119629 169.50187988 154.49739258 168.81625977 153.91650391 168.10986328 C152.25892296 166.08760508 150.62837775 164.04579144 149 162 C147.4597971 160.12379742 145.9183222 158.24863756 144.375 156.375 C143.66859375 155.50230469 142.9621875 154.62960937 142.234375 153.73046875 C139.73841374 150.68033427 137.18460129 147.68415008 134.625 144.6875 C130.84196554 140.25158277 127.19466784 135.73398738 123.625 131.125 C119.16720904 125.37679587 114.48260576 119.86456513 109.69360352 114.390625 C105.85123278 109.99608121 102.11090538 105.53422646 98.43359375 101 C95.34693298 97.19493503 92.23808773 93.40845765 89.125 89.625 C88.52413574 88.89474609 87.92327148 88.16449219 87.30419922 87.41210938 C83.18687177 82.41750098 79.02590119 77.46255066 74.83251953 72.53173828 C71.26971596 68.33671818 67.78674425 64.08085722 64.3125 59.8125 C61.73853582 56.68200302 59.12429576 53.58828722 56.5 50.5 C52.30000488 45.55706395 48.16219621 40.56832879 44.0703125 35.53515625 C42.51332796 33.62858461 40.94741636 31.73161473 39.37060547 29.84155273 C38.58830566 28.90384033 37.80600586 27.96612793 37 27 C36.95320147 43.14252986 36.91797276 59.28503759 36.89637566 75.42761898 C36.88607954 82.92353018 36.87205116 90.41939913 36.84912109 97.9152832 C36.82913611 104.45155049 36.81627147 110.98778716 36.81182301 117.52408415 C36.80922425 120.98240771 36.80315104 124.44064373 36.78853989 127.89893913 C36.77233045 131.76719634 36.77202358 135.63536928 36.77294922 139.50366211 C36.76575867 140.64014694 36.75856812 141.77663177 36.75115967 142.94755554 C36.7716436 150.87596379 36.85232555 159.51774328 42 166 C45.85670632 168.75775237 49.14102618 169.57407415 53.8125 170.1875 C54.97394531 170.34605469 56.13539062 170.50460937 57.33203125 170.66796875 C58.21246094 170.77753906 59.09289062 170.88710938 60 171 C60 172.98 60 174.96 60 177 C41.52 177 23.04 177 4 177 C4 175.02 4 173.04 4 171 C4.73605469 170.89042969 5.47210938 170.78085937 6.23046875 170.66796875 C12.40820897 169.66418797 17.06490592 168.82638689 21.6875 164.375 C25.66900334 157.17037491 25.29233956 148.66133466 25.2746582 140.66235352 C25.27976913 139.45790588 25.28488007 138.25345825 25.29014587 137.01251221 C25.30160404 133.73350487 25.30412524 130.4546556 25.30158257 127.17563367 C25.30050658 124.42734235 25.30541212 121.67907388 25.310188 118.9307875 C25.32125027 112.44204052 25.32173892 105.95335144 25.31567383 99.46459961 C25.30963427 92.79406727 25.32195202 86.12374588 25.3432439 79.45324951 C25.36091488 73.70347655 25.36685269 67.95377041 25.36360615 62.20397133 C25.36180213 58.7798236 25.36434075 55.35582643 25.37832069 51.93170357 C25.39070467 48.10998559 25.38388118 44.28875168 25.37231445 40.46704102 C25.37995819 39.34829086 25.38760193 38.22954071 25.39547729 37.07688904 C25.33461004 27.94365429 24.25594462 19.26227138 17.73046875 12.3984375 C14.76868701 10.00494345 11.64521401 8.96211968 8 8 C6.86691406 7.69449219 6.86691406 7.69449219 5.7109375 7.3828125 C3.81436363 6.89359027 1.90792071 6.44291016 0 6 C0 4.02 0 2.04 0 0 Z " fill="#052460" transform="translate(19,165)"/>
<path d="M0 0 C1.89298828 -0.00580078 1.89298828 -0.00580078 3.82421875 -0.01171875 C13.55566384 0.10529261 22.58773323 1.51143414 32.05957031 3.63867188 C42.67838113 6.1610901 42.67838113 6.1610901 53.4375 5.4375 C54.08074219 4.76589844 54.72398437 4.09429687 55.38671875 3.40234375 C57.4375 1.4375 57.4375 1.4375 63.4375 1.4375 C63.4375 18.5975 63.4375 35.7575 63.4375 53.4375 C61.1275 53.4375 58.8175 53.4375 56.4375 53.4375 C56.08558594 52.33792969 55.73367188 51.23835938 55.37109375 50.10546875 C52.66585676 41.91649289 49.85265796 34.665297 44.85546875 27.5390625 C43.4375 25.4375 43.4375 25.4375 42.4375 22.4375 C41.7775 22.4375 41.1175 22.4375 40.4375 22.4375 C40.4375 21.7775 40.4375 21.1175 40.4375 20.4375 C39.59058594 20.03337891 39.59058594 20.03337891 38.7265625 19.62109375 C36.31996577 18.37672718 34.09391399 16.96025358 31.8125 15.5 C18.9757003 7.87233641 3.06296675 6.89621842 -11.46875 9.6484375 C-20.5471064 11.96387689 -28.55191717 15.14749099 -35.5625 21.4375 C-36.21605469 21.98792969 -36.86960937 22.53835937 -37.54296875 23.10546875 C-51.94946861 36.17442123 -57.51150775 56.28072085 -58.73535156 75.09472656 C-59.89344092 102.25630128 -54.88834732 128.39314243 -36.1875 149.0625 C-23.50390119 160.53813702 -9.81355268 166.08575914 7.4609375 165.6875 C27.15608588 164.03331431 41.46194294 156.83116562 54.38671875 142.046875 C57.50046618 138.08500208 60.03759427 133.86085566 62.4375 129.4375 C66.3125 131.3125 66.3125 131.3125 67.4375 132.4375 C66.80188374 143.16352446 58.29376337 152.33654403 50.72265625 159.453125 C30.77833263 176.77229833 7.86228057 178.79757088 -17.5625 177.4375 C-34.00500107 175.77447379 -49.1241043 166.88575238 -61.5625 156.4375 C-62.21476562 155.89867187 -62.86703125 155.35984375 -63.5390625 154.8046875 C-77.46988999 142.1460817 -85.76896732 121.38197061 -86.68847656 102.90625 C-87.49020253 73.75995921 -82.02290868 51.28505264 -64.0078125 27.94921875 C-63.53085937 27.45035156 -63.05390625 26.95148438 -62.5625 26.4375 C-61.9025 26.4375 -61.2425 26.4375 -60.5625 26.4375 C-60.3253125 25.85742188 -60.088125 25.27734375 -59.84375 24.6796875 C-53.33885778 13.29612612 -35.52143262 6.16715864 -23.5625 2.4375 C-15.76045269 0.32793356 -8.05093291 0.01727668 0 0 Z " fill="#052460" transform="translate(424.5625,164.5625)"/>
<path d="M0 0 C21.12 0 42.24 0 64 0 C64 1.98 64 3.96 64 6 C63.18015625 6.19335938 62.3603125 6.38671875 61.515625 6.5859375 C60.43796875 6.84632813 59.3603125 7.10671875 58.25 7.375 C57.18265625 7.63023437 56.1153125 7.88546875 55.015625 8.1484375 C50.03161676 9.4251865 50.03161676 9.4251865 46.76953125 13.1015625 C46.45371094 13.93429688 46.13789063 14.76703125 45.8125 15.625 C45.48894531 16.44226563 45.16539062 17.25953125 44.83203125 18.1015625 C42.73902276 25.39270006 42.8543134 32.82789503 42.8581543 40.3503418 C42.85294266 42.01789268 42.85294266 42.01789268 42.84762573 43.71913147 C42.84029923 46.12315565 42.83493739 48.52718646 42.83133507 50.9312191 C42.82413145 54.74544539 42.8084356 58.55954587 42.78999329 62.37373352 C42.73770797 73.21520696 42.68914216 84.05659779 42.67407227 94.89819336 C42.66474506 101.540592 42.63453442 108.18270539 42.59275246 114.82499123 C42.58049587 117.34573755 42.57531135 119.86652918 42.57755089 122.38730431 C42.59959751 155.30064158 42.59959751 155.30064158 30.33984375 167.67578125 C20.91222332 176.33029386 11.32591892 177.54558225 -1.01171875 177.33984375 C-7.99784503 177.02683828 -12.81518404 175.01337659 -17.88671875 170.21484375 C-22.22944995 165.44695006 -23.30813467 161.61045482 -23.21484375 155.21484375 C-22.79966193 150.93469667 -20.71373237 148.73412472 -17.8125 145.75 C-14.18889783 143.49531421 -11.24988179 142.82396939 -7 143 C-0.64681685 144.77889128 1.90747892 149.5548352 5 155 C6.38977089 157.65625566 7.72922382 160.32536258 9.01953125 163.03125 C9.84587419 164.95178565 9.84587419 164.95178565 11 166 C13.9157691 166.41702122 13.9157691 166.41702122 17 166 C23.33711738 159.20212735 22.29021198 148.2200296 22.25878906 139.54882812 C22.2622937 138.34423447 22.26579834 137.13964081 22.26940918 135.89854431 C22.27665716 132.6237205 22.27502335 129.3490608 22.26865101 126.07423973 C22.26354797 122.62895772 22.26829432 119.18368581 22.27142334 115.73840332 C22.27505054 109.95530257 22.27029675 104.1722531 22.26074219 98.38916016 C22.24986003 91.72603194 22.25338649 85.06302617 22.264395 78.39990091 C22.27350354 72.65435703 22.27473579 66.90884977 22.26951766 61.16330099 C22.26641749 57.74255971 22.26593436 54.32187578 22.27259064 50.90113831 C22.27769293 47.08439969 22.26989341 43.26789328 22.25878906 39.45117188 C22.26283752 38.33399277 22.26688599 37.21681366 22.27105713 36.06578064 C22.22557065 27.58844078 21.93140409 18.22098456 17 11 C11.95776314 7.4704342 5.96531985 6.90222809 0 6 C0 4.02 0 2.04 0 0 Z " fill="#052460" transform="translate(254,165)"/>
</svg>
